<mxfile host="Electron" agent="Mozilla/5.0 (Windows NT 10.0; Win64; x64) AppleWebKit/537.36 (KHTML, like Gecko) draw.io/28.0.6 Chrome/138.0.7204.100 Electron/37.2.3 Safari/537.36" version="28.0.6">
  <diagram name="Page-1" id="Pij9hvEOEpcKtUvoxfeg">
    <mxGraphModel dx="1226" dy="849" grid="1" gridSize="10" guides="1" tooltips="1" connect="1" arrows="1" fold="1" page="1" pageScale="1" pageWidth="1920" pageHeight="1200" math="0" shadow="0">
      <root>
        <mxCell id="0" />
        <mxCell id="1" parent="0" />
        <mxCell id="6MNtlvAQbQas4SW-6qWs-1" value="" style="rounded=0;whiteSpace=wrap;html=1;fillColor=none;dashed=1;strokeColor=light-dark(#e2dfdf, #ededed);" vertex="1" parent="1">
          <mxGeometry x="25.65" y="121" width="154.35" height="1020" as="geometry" />
        </mxCell>
        <mxCell id="6MNtlvAQbQas4SW-6qWs-2" value="&lt;font style=&quot;font-size: 24px;&quot;&gt;Sources&lt;/font&gt;" style="rounded=0;whiteSpace=wrap;html=1;strokeColor=none;" vertex="1" parent="1">
          <mxGeometry x="57.83" y="106" width="90" height="50" as="geometry" />
        </mxCell>
        <mxCell id="6MNtlvAQbQas4SW-6qWs-3" value="&lt;span style=&quot;color: rgba(0, 0, 0, 0); font-family: monospace; font-size: 0px; text-align: start; text-wrap-mode: nowrap;&quot;&gt;%3CmxGraphModel%3E%3Croot%3E%3CmxCell%20id%3D%220%22%2F%3E%3CmxCell%20id%3D%221%22%20parent%3D%220%22%2F%3E%3CmxCell%20id%3D%222%22%20value%3D%22%26lt%3Bfont%20style%3D%26quot%3Bfont-size%3A%2020px%3B%26quot%3B%26gt%3BBronze%20Layer%26lt%3B%2Ffont%26gt%3B%22%20style%3D%22rounded%3D0%3BwhiteSpace%3Dwrap%3Bhtml%3D1%3BfillColor%3D%23ffe6cc%3BstrokeColor%3D%23d79b00%3B%22%20vertex%3D%221%22%20parent%3D%221%22%3E%3CmxGeometry%20x%3D%22330%22%20y%3D%22210%22%20width%3D%22180%22%20height%3D%2230%22%20as%3D%22geometry%22%2F%3E%3C%2FmxCell%3E%3C%2Froot%3E%3C%2FmxGraphModel%3E&lt;/span&gt;" style="rounded=0;whiteSpace=wrap;html=1;fillColor=none;dashed=1;strokeColor=light-dark(#e8e3e3, #ededed);" vertex="1" parent="1">
          <mxGeometry x="200" y="130" width="670" height="1010" as="geometry" />
        </mxCell>
        <mxCell id="6MNtlvAQbQas4SW-6qWs-4" value="&lt;font style=&quot;font-size: 24px;&quot;&gt;Data Warehouse&lt;/font&gt;" style="rounded=0;whiteSpace=wrap;html=1;strokeColor=none;" vertex="1" parent="1">
          <mxGeometry x="450" y="95" width="210" height="55" as="geometry" />
        </mxCell>
        <mxCell id="6MNtlvAQbQas4SW-6qWs-5" value="" style="rounded=0;whiteSpace=wrap;html=1;fillColor=none;dashed=1;strokeColor=light-dark(#e1dbdb, #ededed);" vertex="1" parent="1">
          <mxGeometry x="904.6" y="130" width="180" height="1010" as="geometry" />
        </mxCell>
        <mxCell id="6MNtlvAQbQas4SW-6qWs-6" value="&lt;font style=&quot;font-size: 22px;&quot;&gt;Consumers&lt;/font&gt;" style="rounded=0;whiteSpace=wrap;html=1;strokeColor=none;" vertex="1" parent="1">
          <mxGeometry x="939.6" y="110" width="110" height="45" as="geometry" />
        </mxCell>
        <mxCell id="6MNtlvAQbQas4SW-6qWs-8" value="&lt;font style=&quot;font-size: 20px;&quot;&gt;&lt;b&gt;Bronze Layer&lt;/b&gt;&lt;/font&gt;" style="rounded=0;whiteSpace=wrap;html=1;fillColor=#ffe6cc;strokeColor=#d79b00;" vertex="1" parent="1">
          <mxGeometry x="230" y="171" width="180" height="30" as="geometry" />
        </mxCell>
        <mxCell id="6MNtlvAQbQas4SW-6qWs-9" value="&lt;div&gt;&lt;font style=&quot;font-size: 18px;&quot;&gt;&lt;br&gt;&lt;/font&gt;&lt;/div&gt;&lt;div&gt;&lt;font style=&quot;font-size: 18px;&quot;&gt;&lt;br&gt;&lt;/font&gt;&lt;/div&gt;&lt;div&gt;&lt;font style=&quot;font-size: 18px;&quot;&gt;&lt;br&gt;&lt;/font&gt;&lt;/div&gt;&lt;div&gt;&lt;font style=&quot;font-size: 18px;&quot;&gt;&lt;br&gt;&lt;/font&gt;&lt;/div&gt;&lt;div&gt;&lt;font style=&quot;font-size: 18px;&quot;&gt;&lt;br&gt;&lt;/font&gt;&lt;/div&gt;&lt;div&gt;&lt;font style=&quot;font-size: 18px;&quot;&gt;&lt;br&gt;&lt;/font&gt;&lt;/div&gt;&lt;div&gt;&lt;br&gt;&lt;/div&gt;" style="rounded=0;whiteSpace=wrap;html=1;fillColor=none;strokeColor=light-dark(#b68c20, #996500);" vertex="1" parent="1">
          <mxGeometry x="230" y="221" width="180" height="900" as="geometry" />
        </mxCell>
        <mxCell id="6MNtlvAQbQas4SW-6qWs-10" value="&lt;font style=&quot;font-size: 20px;&quot;&gt;&lt;b&gt;Silver Layer&lt;/b&gt;&lt;/font&gt;" style="rounded=0;whiteSpace=wrap;html=1;fillColor=#f5f5f5;strokeColor=#666666;fontColor=#333333;" vertex="1" parent="1">
          <mxGeometry x="460" y="170" width="180" height="30" as="geometry" />
        </mxCell>
        <mxCell id="6MNtlvAQbQas4SW-6qWs-12" value="" style="rounded=0;whiteSpace=wrap;html=1;fillColor=none;strokeColor=#666666;fontColor=#333333;" vertex="1" parent="1">
          <mxGeometry x="460" y="220" width="180" height="900" as="geometry" />
        </mxCell>
        <mxCell id="6MNtlvAQbQas4SW-6qWs-13" value="&lt;font style=&quot;font-size: 20px;&quot;&gt;&lt;b&gt;Gold Layer&lt;/b&gt;&lt;/font&gt;" style="rounded=0;whiteSpace=wrap;html=1;fillColor=#fff2cc;strokeColor=#d6b656;" vertex="1" parent="1">
          <mxGeometry x="680" y="170" width="180" height="30" as="geometry" />
        </mxCell>
        <mxCell id="6MNtlvAQbQas4SW-6qWs-14" value="&lt;div&gt;&lt;font style=&quot;font-size: 18px;&quot;&gt;&lt;br&gt;&lt;/font&gt;&lt;/div&gt;&lt;div&gt;&lt;font style=&quot;font-size: 18px;&quot;&gt;&lt;br&gt;&lt;/font&gt;&lt;/div&gt;&lt;div&gt;&lt;font style=&quot;font-size: 18px;&quot;&gt;&lt;br&gt;&lt;/font&gt;&lt;/div&gt;&lt;div&gt;&lt;font style=&quot;font-size: 18px;&quot;&gt;&lt;br&gt;&lt;/font&gt;&lt;/div&gt;&lt;div&gt;&lt;font style=&quot;font-size: 18px;&quot;&gt;&lt;br&gt;&lt;/font&gt;&lt;/div&gt;&lt;div&gt;&lt;font style=&quot;font-size: 18px;&quot;&gt;&lt;br&gt;&lt;/font&gt;&lt;/div&gt;&lt;div&gt;&lt;br&gt;&lt;/div&gt;" style="rounded=0;whiteSpace=wrap;html=1;fillColor=none;strokeColor=#d6b656;" vertex="1" parent="1">
          <mxGeometry x="680" y="220" width="190" height="900" as="geometry" />
        </mxCell>
        <mxCell id="6MNtlvAQbQas4SW-6qWs-15" value="&lt;b&gt;CRM&lt;/b&gt;" style="image;aspect=fixed;html=1;points=[];align=center;fontSize=12;image=img/lib/azure2/general/Folder_Blank.svg;" vertex="1" parent="1">
          <mxGeometry x="70.36" y="281" width="49.29" height="40" as="geometry" />
        </mxCell>
        <mxCell id="6MNtlvAQbQas4SW-6qWs-16" value="" style="image;aspect=fixed;html=1;points=[];align=center;fontSize=12;image=img/lib/azure2/general/File.svg;" vertex="1" parent="1">
          <mxGeometry x="95.30000000000001" y="291" width="24.35" height="30" as="geometry" />
        </mxCell>
        <mxCell id="6MNtlvAQbQas4SW-6qWs-17" value="&lt;b&gt;&amp;nbsp;ERP&lt;/b&gt;" style="image;aspect=fixed;html=1;points=[];align=center;fontSize=12;image=img/lib/azure2/general/Folder_Blank.svg;" vertex="1" parent="1">
          <mxGeometry x="70.36" y="411" width="49.29" height="40" as="geometry" />
        </mxCell>
        <mxCell id="6MNtlvAQbQas4SW-6qWs-18" value="" style="image;aspect=fixed;html=1;points=[];align=center;fontSize=12;image=img/lib/azure2/general/File.svg;" vertex="1" parent="1">
          <mxGeometry x="95.30000000000001" y="419.64" width="24.64" height="30.36" as="geometry" />
        </mxCell>
        <mxCell id="6MNtlvAQbQas4SW-6qWs-19" value="" style="endArrow=none;html=1;rounded=0;" edge="1" parent="1">
          <mxGeometry width="50" height="50" relative="1" as="geometry">
            <mxPoint x="43.12" y="528.82" as="sourcePoint" />
            <mxPoint x="153.12" y="528.82" as="targetPoint" />
          </mxGeometry>
        </mxCell>
        <mxCell id="6MNtlvAQbQas4SW-6qWs-23" value="&lt;font style=&quot;font-size: 20px;&quot;&gt;&lt;b style=&quot;&quot;&gt;Object Type &lt;/b&gt;: CSV File&lt;/font&gt;&lt;div&gt;&lt;font style=&quot;font-size: 20px;&quot;&gt;&lt;br&gt;&lt;/font&gt;&lt;div&gt;&lt;font style=&quot;font-size: 20px;&quot;&gt;&lt;b&gt;Interface&lt;/b&gt; :&lt;/font&gt;&lt;/div&gt;&lt;div&gt;&lt;font style=&quot;font-size: 20px;&quot;&gt;&amp;nbsp;FIles in folder&lt;/font&gt;&lt;/div&gt;&lt;/div&gt;" style="text;html=1;align=center;verticalAlign=middle;whiteSpace=wrap;rounded=0;" vertex="1" parent="1">
          <mxGeometry x="57.83" y="640" width="90" height="30" as="geometry" />
        </mxCell>
        <mxCell id="6MNtlvAQbQas4SW-6qWs-24" value="" style="html=1;verticalLabelPosition=bottom;align=center;labelBackgroundColor=#ffffff;verticalAlign=top;strokeWidth=2;strokeColor=#d79b00;shadow=0;dashed=0;shape=mxgraph.ios7.icons.data;fillColor=#ffe6cc;" vertex="1" parent="1">
          <mxGeometry x="265" y="330" width="110" height="120" as="geometry" />
        </mxCell>
        <mxCell id="6MNtlvAQbQas4SW-6qWs-25" value="" style="html=1;verticalLabelPosition=bottom;align=center;labelBackgroundColor=#ffffff;verticalAlign=top;strokeWidth=2;strokeColor=#666666;shadow=0;dashed=0;shape=mxgraph.ios7.icons.data;fillColor=#f5f5f5;fontColor=#333333;" vertex="1" parent="1">
          <mxGeometry x="495" y="330" width="110" height="120" as="geometry" />
        </mxCell>
        <mxCell id="6MNtlvAQbQas4SW-6qWs-26" value="" style="html=1;verticalLabelPosition=bottom;align=center;labelBackgroundColor=#ffffff;verticalAlign=top;strokeWidth=2;strokeColor=#d6b656;shadow=0;dashed=0;shape=mxgraph.ios7.icons.data;fillColor=#fff2cc;" vertex="1" parent="1">
          <mxGeometry x="715" y="330" width="110" height="120" as="geometry" />
        </mxCell>
        <mxCell id="6MNtlvAQbQas4SW-6qWs-27" value="" style="shape=singleArrow;whiteSpace=wrap;html=1;" vertex="1" parent="1">
          <mxGeometry x="130.65" y="380" width="100" height="40" as="geometry" />
        </mxCell>
        <mxCell id="6MNtlvAQbQas4SW-6qWs-32" value="" style="shape=singleArrow;whiteSpace=wrap;html=1;" vertex="1" parent="1">
          <mxGeometry x="390" y="375" width="100" height="40" as="geometry" />
        </mxCell>
        <mxCell id="6MNtlvAQbQas4SW-6qWs-33" value="" style="shape=singleArrow;whiteSpace=wrap;html=1;" vertex="1" parent="1">
          <mxGeometry x="610" y="380" width="100" height="40" as="geometry" />
        </mxCell>
        <mxCell id="6MNtlvAQbQas4SW-6qWs-34" value="" style="shape=singleArrow;whiteSpace=wrap;html=1;" vertex="1" parent="1">
          <mxGeometry x="845" y="380" width="100" height="40" as="geometry" />
        </mxCell>
        <mxCell id="6MNtlvAQbQas4SW-6qWs-35" value="" style="endArrow=none;html=1;rounded=0;fillColor=#ffe6cc;strokeColor=#d79b00;" edge="1" parent="1">
          <mxGeometry width="50" height="50" relative="1" as="geometry">
            <mxPoint x="270" y="584.41" as="sourcePoint" />
            <mxPoint x="380" y="584.41" as="targetPoint" />
          </mxGeometry>
        </mxCell>
        <mxCell id="6MNtlvAQbQas4SW-6qWs-37" value="" style="endArrow=none;html=1;rounded=0;fillColor=#fff2cc;strokeColor=#d6b656;" edge="1" parent="1">
          <mxGeometry width="50" height="50" relative="1" as="geometry">
            <mxPoint x="720" y="584.41" as="sourcePoint" />
            <mxPoint x="830" y="584.41" as="targetPoint" />
          </mxGeometry>
        </mxCell>
        <mxCell id="6MNtlvAQbQas4SW-6qWs-41" value="&lt;font style=&quot;font-size: 20px;&quot;&gt;&lt;b style=&quot;&quot;&gt;Object Type&amp;nbsp;&lt;/b&gt;:&amp;nbsp;&lt;/font&gt;&lt;div&gt;&lt;font style=&quot;font-size: 20px;&quot;&gt;Table&lt;/font&gt;&lt;div&gt;&lt;div&gt;&lt;b&gt;&lt;font style=&quot;font-size: 20px;&quot;&gt;&lt;br&gt;&lt;/font&gt;&lt;/b&gt;&lt;/div&gt;&lt;div&gt;&lt;b&gt;&lt;font style=&quot;font-size: 20px;&quot;&gt;Load:&lt;/font&gt;&lt;/b&gt;&lt;/div&gt;&lt;div&gt;&lt;br&gt;&lt;/div&gt;&lt;div&gt;&lt;span style=&quot;background-color: transparent; color: light-dark(rgb(0, 0, 0), rgb(255, 255, 255));&quot;&gt;&lt;font style=&quot;font-size: 20px;&quot;&gt;Batch Processing&lt;/font&gt;&lt;/span&gt;&lt;/div&gt;&lt;/div&gt;&lt;div&gt;&lt;font style=&quot;font-size: 20px;&quot;&gt;Full Load(Trunc and Insert)&lt;/font&gt;&lt;/div&gt;&lt;/div&gt;&lt;div&gt;&lt;font style=&quot;font-size: 20px;&quot;&gt;&lt;br&gt;&lt;/font&gt;&lt;/div&gt;&lt;div&gt;&lt;b&gt;&lt;font style=&quot;font-size: 20px;&quot;&gt;&lt;br&gt;&lt;/font&gt;&lt;/b&gt;&lt;/div&gt;&lt;div&gt;&lt;b&gt;&lt;font style=&quot;font-size: 20px;&quot;&gt;&lt;br&gt;&lt;/font&gt;&lt;/b&gt;&lt;/div&gt;&lt;div&gt;&lt;b&gt;&lt;font style=&quot;font-size: 20px;&quot;&gt;No Transformations&lt;/font&gt;&lt;/b&gt;&lt;/div&gt;&lt;div&gt;&lt;font style=&quot;font-size: 20px;&quot;&gt;&lt;br&gt;&lt;/font&gt;&lt;/div&gt;&lt;div&gt;&lt;font style=&quot;font-size: 20px;&quot;&gt;&lt;b&gt;Data Model &lt;/b&gt;: None(As-is)&lt;/font&gt;&lt;/div&gt;&lt;div&gt;&lt;font style=&quot;font-size: 20px;&quot;&gt;&lt;br&gt;&lt;/font&gt;&lt;/div&gt;&lt;div&gt;&lt;br&gt;&lt;/div&gt;" style="text;html=1;align=center;verticalAlign=middle;whiteSpace=wrap;rounded=0;" vertex="1" parent="1">
          <mxGeometry x="250" y="680" width="140" height="240" as="geometry" />
        </mxCell>
        <mxCell id="6MNtlvAQbQas4SW-6qWs-48" value="" style="endArrow=none;html=1;rounded=0;fillColor=#f5f5f5;strokeColor=#666666;" edge="1" parent="1">
          <mxGeometry width="50" height="50" relative="1" as="geometry">
            <mxPoint x="495" y="584.41" as="sourcePoint" />
            <mxPoint x="605" y="584.41" as="targetPoint" />
          </mxGeometry>
        </mxCell>
        <mxCell id="6MNtlvAQbQas4SW-6qWs-50" value="&lt;font style=&quot;font-size: 20px;&quot;&gt;&lt;b style=&quot;&quot;&gt;Object Type&amp;nbsp;&lt;/b&gt;:&amp;nbsp;&lt;/font&gt;&lt;div&gt;&lt;font style=&quot;font-size: 20px;&quot;&gt;Table&lt;/font&gt;&lt;div&gt;&lt;div&gt;&lt;b&gt;&lt;font style=&quot;font-size: 20px;&quot;&gt;&lt;br&gt;&lt;/font&gt;&lt;/b&gt;&lt;/div&gt;&lt;div&gt;&lt;b&gt;&lt;font style=&quot;font-size: 20px;&quot;&gt;Load:&lt;/font&gt;&lt;/b&gt;&lt;/div&gt;&lt;div&gt;&lt;br&gt;&lt;/div&gt;&lt;div&gt;&lt;span style=&quot;background-color: transparent; color: light-dark(rgb(0, 0, 0), rgb(255, 255, 255));&quot;&gt;&lt;font style=&quot;font-size: 20px;&quot;&gt;Batch Processing&lt;/font&gt;&lt;/span&gt;&lt;/div&gt;&lt;/div&gt;&lt;div&gt;&lt;span style=&quot;background-color: transparent; color: light-dark(rgb(0, 0, 0), rgb(255, 255, 255));&quot;&gt;&lt;font style=&quot;font-size: 20px;&quot;&gt;Full Load&lt;/font&gt;&lt;/span&gt;&lt;/div&gt;&lt;div&gt;&lt;span style=&quot;background-color: transparent; color: light-dark(rgb(0, 0, 0), rgb(255, 255, 255));&quot;&gt;&lt;font style=&quot;font-size: 20px;&quot;&gt;Trunc and Insert&lt;/font&gt;&lt;/span&gt;&lt;/div&gt;&lt;/div&gt;&lt;div&gt;&lt;font style=&quot;font-size: 20px;&quot;&gt;&lt;br&gt;&lt;/font&gt;&lt;/div&gt;&lt;div&gt;&lt;b&gt;&lt;font style=&quot;font-size: 20px;&quot;&gt;&lt;br&gt;&lt;/font&gt;&lt;/b&gt;&lt;/div&gt;&lt;div&gt;&lt;b style=&quot;background-color: transparent; color: light-dark(rgb(0, 0, 0), rgb(255, 255, 255));&quot;&gt;&lt;font style=&quot;font-size: 20px;&quot;&gt;Transformations&lt;/font&gt;&lt;/b&gt;&lt;/div&gt;&lt;div&gt;&lt;font style=&quot;font-size: 20px;&quot;&gt;&lt;br&gt;&lt;/font&gt;&lt;/div&gt;&lt;div&gt;&lt;font style=&quot;font-size: 20px;&quot;&gt;Data Cleansing&lt;/font&gt;&lt;/div&gt;&lt;div&gt;&lt;font style=&quot;font-size: 20px;&quot;&gt;Data Standardization&lt;/font&gt;&lt;/div&gt;&lt;div&gt;&lt;font style=&quot;font-size: 20px;&quot;&gt;Data Normalization&lt;/font&gt;&lt;/div&gt;&lt;div&gt;&lt;font style=&quot;font-size: 20px;&quot;&gt;Derived Columns&lt;/font&gt;&lt;/div&gt;&lt;div&gt;&lt;font style=&quot;font-size: 20px;&quot;&gt;Data Enrichment&lt;/font&gt;&lt;/div&gt;&lt;div&gt;&lt;font style=&quot;font-size: 20px;&quot;&gt;&lt;br&gt;&lt;/font&gt;&lt;/div&gt;&lt;div&gt;&lt;font style=&quot;font-size: 20px;&quot;&gt;&lt;b&gt;Data Model &lt;/b&gt;: None(As-is)&lt;/font&gt;&lt;/div&gt;&lt;div&gt;&lt;font style=&quot;font-size: 20px;&quot;&gt;&lt;br&gt;&lt;/font&gt;&lt;/div&gt;&lt;div&gt;&lt;font style=&quot;font-size: 20px;&quot;&gt;&lt;br&gt;&lt;/font&gt;&lt;br&gt;&lt;/div&gt;" style="text;html=1;align=center;verticalAlign=middle;whiteSpace=wrap;rounded=0;" vertex="1" parent="1">
          <mxGeometry x="485" y="820" width="140" height="130" as="geometry" />
        </mxCell>
        <mxCell id="6MNtlvAQbQas4SW-6qWs-51" value="&lt;font style=&quot;font-size: 20px;&quot;&gt;&lt;b style=&quot;&quot;&gt;Object Type&amp;nbsp;&lt;/b&gt;:&amp;nbsp;&lt;/font&gt;&lt;div&gt;&lt;font style=&quot;font-size: 20px;&quot;&gt;Views&lt;br&gt;&lt;/font&gt;&lt;div&gt;&lt;div&gt;&lt;b&gt;&lt;font style=&quot;font-size: 20px;&quot;&gt;&lt;br&gt;&lt;/font&gt;&lt;/b&gt;&lt;/div&gt;&lt;div&gt;&lt;b&gt;&lt;font style=&quot;font-size: 20px;&quot;&gt;Load:&lt;/font&gt;&lt;/b&gt;&lt;/div&gt;&lt;div&gt;&lt;font style=&quot;font-size: 20px;&quot;&gt;&lt;span style=&quot;background-color: transparent; color: light-dark(rgb(0, 0, 0), rgb(255, 255, 255));&quot;&gt;No Load&lt;/span&gt;&lt;/font&gt;&lt;/div&gt;&lt;/div&gt;&lt;/div&gt;&lt;div&gt;&lt;span style=&quot;background-color: transparent; color: light-dark(rgb(0, 0, 0), rgb(255, 255, 255));&quot;&gt;&lt;font style=&quot;font-size: 20px;&quot;&gt;&lt;br&gt;&lt;/font&gt;&lt;/span&gt;&lt;/div&gt;&lt;div&gt;&lt;span style=&quot;background-color: transparent; color: light-dark(rgb(0, 0, 0), rgb(255, 255, 255));&quot;&gt;&lt;b&gt;&lt;font style=&quot;font-size: 20px;&quot;&gt;&lt;br&gt;&lt;/font&gt;&lt;/b&gt;&lt;/span&gt;&lt;/div&gt;&lt;div&gt;&lt;span style=&quot;background-color: transparent; color: light-dark(rgb(0, 0, 0), rgb(255, 255, 255));&quot;&gt;&lt;b&gt;&lt;font style=&quot;font-size: 20px;&quot;&gt;&lt;br&gt;&lt;/font&gt;&lt;/b&gt;&lt;/span&gt;&lt;/div&gt;&lt;div&gt;&lt;span style=&quot;background-color: transparent; color: light-dark(rgb(0, 0, 0), rgb(255, 255, 255));&quot;&gt;&lt;b&gt;&lt;font style=&quot;font-size: 20px;&quot;&gt;&lt;br&gt;&lt;/font&gt;&lt;/b&gt;&lt;/span&gt;&lt;/div&gt;&lt;div&gt;&lt;span style=&quot;background-color: transparent; color: light-dark(rgb(0, 0, 0), rgb(255, 255, 255));&quot;&gt;&lt;b&gt;&lt;font style=&quot;font-size: 20px;&quot;&gt;Transformations:&lt;/font&gt;&lt;/b&gt;&lt;/span&gt;&lt;/div&gt;&lt;div&gt;&lt;span style=&quot;background-color: transparent; color: light-dark(rgb(0, 0, 0), rgb(255, 255, 255));&quot;&gt;&lt;font style=&quot;font-size: 20px;&quot;&gt;&lt;br&gt;&lt;/font&gt;&lt;/span&gt;&lt;/div&gt;&lt;div&gt;&lt;span style=&quot;background-color: transparent; color: light-dark(rgb(0, 0, 0), rgb(255, 255, 255));&quot;&gt;&lt;font style=&quot;font-size: 20px;&quot;&gt;Data Integrations&lt;/font&gt;&lt;/span&gt;&lt;/div&gt;&lt;div&gt;&lt;font style=&quot;font-size: 20px;&quot;&gt;Aggregations&lt;/font&gt;&lt;/div&gt;&lt;div&gt;&lt;font style=&quot;font-size: 20px;&quot;&gt;Business Logics&lt;/font&gt;&lt;/div&gt;&lt;div&gt;&lt;font style=&quot;font-size: 20px;&quot;&gt;&lt;br&gt;&lt;/font&gt;&lt;/div&gt;&lt;div&gt;&lt;b&gt;&lt;font style=&quot;font-size: 20px;&quot;&gt;&lt;br&gt;&lt;/font&gt;&lt;/b&gt;&lt;/div&gt;&lt;div&gt;&lt;b&gt;&lt;font style=&quot;font-size: 20px;&quot;&gt;&lt;br&gt;&lt;/font&gt;&lt;/b&gt;&lt;/div&gt;&lt;div&gt;&lt;b style=&quot;background-color: transparent; color: light-dark(rgb(0, 0, 0), rgb(255, 255, 255));&quot;&gt;&lt;font style=&quot;font-size: 20px;&quot;&gt;Data Model :&lt;/font&gt;&lt;/b&gt;&lt;/div&gt;&lt;div&gt;&lt;font style=&quot;font-size: 20px;&quot;&gt;&amp;nbsp;&lt;/font&gt;&lt;/div&gt;&lt;div&gt;&lt;font style=&quot;font-size: 20px;&quot;&gt;Star Schema&lt;/font&gt;&lt;/div&gt;&lt;div&gt;&lt;font style=&quot;font-size: 20px;&quot;&gt;Flat Table&lt;/font&gt;&lt;/div&gt;&lt;div&gt;&lt;font style=&quot;font-size: 20px;&quot;&gt;Aggregated Table&lt;/font&gt;&lt;/div&gt;&lt;div&gt;&lt;font style=&quot;font-size: 20px;&quot;&gt;&lt;br&gt;&lt;/font&gt;&lt;/div&gt;&lt;div&gt;&lt;br&gt;&lt;/div&gt;" style="text;html=1;align=center;verticalAlign=middle;whiteSpace=wrap;rounded=0;" vertex="1" parent="1">
          <mxGeometry x="710" y="810" width="140" height="130" as="geometry" />
        </mxCell>
        <mxCell id="6MNtlvAQbQas4SW-6qWs-53" value="&lt;font style=&quot;font-size: 18px;&quot;&gt;Raw Data&lt;/font&gt;" style="text;html=1;align=center;verticalAlign=middle;whiteSpace=wrap;rounded=0;" vertex="1" parent="1">
          <mxGeometry x="270" y="530" width="110" height="30" as="geometry" />
        </mxCell>
        <mxCell id="6MNtlvAQbQas4SW-6qWs-54" value="&lt;font style=&quot;font-size: 18px;&quot;&gt;Cleaned, Standardized Data&lt;/font&gt;" style="text;html=1;align=center;verticalAlign=middle;whiteSpace=wrap;rounded=0;" vertex="1" parent="1">
          <mxGeometry x="480" y="530" width="130" height="30" as="geometry" />
        </mxCell>
        <mxCell id="6MNtlvAQbQas4SW-6qWs-55" value="&lt;font style=&quot;font-size: 18px;&quot;&gt;Business Ready Data&lt;/font&gt;" style="text;html=1;align=center;verticalAlign=middle;whiteSpace=wrap;rounded=0;" vertex="1" parent="1">
          <mxGeometry x="715" y="530" width="110" height="30" as="geometry" />
        </mxCell>
        <mxCell id="6MNtlvAQbQas4SW-6qWs-56" value="" style="image;aspect=fixed;html=1;points=[];align=center;fontSize=12;image=img/lib/azure2/analytics/Power_BI_Embedded.svg;" vertex="1" parent="1">
          <mxGeometry x="950" y="330" width="51" height="68" as="geometry" />
        </mxCell>
        <mxCell id="6MNtlvAQbQas4SW-6qWs-57" value="" style="image;aspect=fixed;html=1;points=[];align=center;fontSize=12;image=img/lib/azure2/general/Search_Grid.svg;" vertex="1" parent="1">
          <mxGeometry x="960" y="493" width="68" height="67" as="geometry" />
        </mxCell>
        <mxCell id="6MNtlvAQbQas4SW-6qWs-58" value="" style="points=[];aspect=fixed;html=1;align=center;shadow=0;dashed=0;fillColor=#FF6A00;strokeColor=none;shape=mxgraph.alibaba_cloud.machine_learning;" vertex="1" parent="1">
          <mxGeometry x="969.7" y="700" width="49.8" height="50.099999999999994" as="geometry" />
        </mxCell>
        <mxCell id="6MNtlvAQbQas4SW-6qWs-59" value="&lt;font style=&quot;font-size: 18px;&quot;&gt;BI &amp;amp; Reporting&lt;/font&gt;" style="text;html=1;align=center;verticalAlign=middle;whiteSpace=wrap;rounded=0;" vertex="1" parent="1">
          <mxGeometry x="945" y="410" width="120" height="30" as="geometry" />
        </mxCell>
        <mxCell id="6MNtlvAQbQas4SW-6qWs-60" value="" style="shape=image;verticalLabelPosition=bottom;labelBackgroundColor=default;verticalAlign=top;aspect=fixed;imageAspect=0;image=data:image/jpeg,/9j/4AAQSkZJRgABAQAAAQABAAD/2wCEAAkGBwgHBgkIBwgKCgkLDRYPDQwMDRsUFRAWIB0iIiAdHx8kKDQsJCYxJx8fLT0tMTU3Ojo6Iys/RD84QzQ5OjcBCgoKDQwNGg8PGjclHyU3Nzc3Nzc3Nzc3Nzc3Nzc3Nzc3Nzc3Nzc3Nzc3Nzc3Nzc3Nzc3Nzc3Nzc3Nzc3Nzc3N//AABEIAIcA4QMBIgACEQEDEQH/xAAbAAEAAgMBAQAAAAAAAAAAAAAABQYBBAcDAv/EAEoQAAEDAwECCAgKCAQHAAAAAAEAAgMEBREGEiEHEzFBUVRh0RQWFzWSsbLBNDZSU1Vxc3SRkyIyM3KBoaLSJUKDsxUmRGJjlPH/xAAZAQEAAwEBAAAAAAAAAAAAAAAAAgMEBQH/xAAtEQACAQQBAgQEBwEAAAAAAAAAAQIDBBESEyExBRRBUTJScYEVIyQzNEJhIv/aAAwDAQACEQMRAD8A7iiIgCIiAIiIAiIgPKWVkLC+RzWsHKScYXnFWU07tmCeOR2M4a4FaWpR/gtR9Q9ar2jPOUn2J9YWKrdOFeNJLuaadBSoyqZ7F3WMrKwtpmNCpvFBSTOiqaqON7eUFR15vdtntNZFFWROe+B7QAeU4XrcNM0NwrH1U7p+MeACGvAG4Y6FGXPSlvpLdVVELp9uKJz25cMZA+pSWpVJzNXRdxo6CCqbVzsic57S0O5xhWTxgtPX4v5qp6VslJd4qiSrModG4Buw7G4hTfiZbPl1PpjuUpa5IQc9VgsgdkZC+l8MbstDRzDG9farNB4VNXBSRiSqmjhYTgOkcGgn+K+aWupasuFLUwzbPLxbw7H4Kt8I/mSD7032XqN4Mv21f+6z3qev/OxU54nqX9ERQLQiIgCIiAIiIAiIgCIiAIiIAiLBQGVhQV7v0lsqmwtga/abtZLsKP8AG+bqbPTWOpfUIScZPqaIWtWcdoroTGpfMtR9Q9YVf0b5zk+xPrC+bjqSSvo5KY07GB/+bazhaNouLrZUOnbGH5Zs4Jx/H+S5la6pSuoVE+iOhSt6kbecGurOirKqPjfN1NnprA1hN1SP0yuivEbd/wBjF5Kv7FvUdf8AzHX/AHd/slb7HbTQVh8bJGOY8BzHDBB5CFuTMbXoVPg9+DVnJ+0bz55lb1409LT0wcKeFkYdy7DQMr1K9by8nkI6xwZRVG/axltV0ko2UTJGta07ZkwTkZ5MKO8oU/0dH+ae5SVOT6kXVgnjJJcI/mSD7032XqN4MvhFeP8AtZ6yovUOqZL3RMpn0jItmUP2mvzzEY5O1a2nL9JYpZ3sp2zccGjDn7OMf/VaoPTBQ6keTJ1xFQPKFP8AR0f5p7l70Ou5qqupqY0EbeOlawu4wnGTjPIquORdzQfqXhFgLKgWhERAEREAREQBERAEREAREQGjWWmirZRJUw7bwMA7RC8PF21dW/rd3qVRVOhTk8uKLFVqRWFJlavlmoKa1zTQwbMjQMO2icb/AK1DaZoqeurZIqmPbYI9rGSN+QrRqXzLUfUPWFX9GecpPsT6wuVXpQV5CKXQ30ak3azbZYfF21dVHpHvTxetfVv63d6lUXU8vS+VGDmqfMzAaAMBYJwvpVnXMssFvgMMr4yZcEscRzHoUqs1Tg5ewpU3UmoL1LJtLKoejaqomvOzLUSvbxTjsueSOUK+KFvWVaGyRO4oOhPRsiq/TlruFS6pq6cySuABO24cgxyZWv4n2LqZ/Nd3qeRaNmZtY+xQNa2G22u1xT0UBjkdOGEl5O7Zcec9i0dD2miu09W2vh4wRtbsjaIxnPR9SsHCP5kg+9N9l6jeDL4RX/us9ZVqk+NmdxXLgsA0fY+pn8x3evSDSlmp52TxUmJI3h7XcY44I39KmkJ3KrZmjSPsZRY51leEgiIgCIiAIiIAiIgCIiALBTKwSEBAUWoX1N9fbDTNaGve3jNvP6uebHYrCqHZ/jvPj56b3q95UpLBCm208kbfopZ7TNFCzbkdyNHPvULpe31lJXvkqKd0bDFjJI6QrXjcmysc7aM6qqt9UaY15Rpun6M+kWCcDJXh4ZTdYh9MLS2kVYbNhVbX3m2n+29xVi8Lp+sQ+mFWdczRS2+BscsbnCXJDXZ5is13JcEjTZp88fqROiPPf+i71hdCC53ot7I7ztSOa0cS4Zccc4V+8LpusQ+mFT4c1w/cv8TT5/sj3ReHhlN1iH0wvuOVkrdqN7Xjpacremmc/BXtdUVVcLTDFRQumkFQHFrejZd3rQ0Da663TVjq2mfDttbs7XPjKuWFjkU1LEdStwW2x9FUHWerbrZb0aOj8HMQia/9NhJyc9vYr8uRcJpHjO7PV2D1qdGKlLDPZPCOpWmeSqttLUS425YmPdjkyRlbij7B5jt/3aP2Qt4nA3qt9yR9IiLwBERAEREAREQBERAQWporpLFALS54eHHbLXgbv4qA8E1b87P+c3vV7whUlLCIOGXnJyykiubry+Knc7w8PdtHbHLv2t6mfA9XfOy/nN71izfHio+1m96veFOUsFUKeV3IywR10Vua25OLqjaJcS7PPuUovMuwcFZ293MqmXrojEuTE8DlwVyHZPyf5LsACzshZLm258dcYNlrdeXz0zk49snoWCHDlaeXdhdi2Qqtr0f4dT4+e9xWCtYcdNy27HRo+JclRQ17lG3kdO7kIyUwfklWDRABve/5l3rC6CAoW1lzQ2zgsur/AIKmmuTj+wfkldC0ZusbN28PfuxvxlT+yEDQORb7ez4ZbbZOddXvPDXXBlQWsWVr9PVDbZxvhW0zZ4o4d+sM4/gpovxy4TOQO1b08M55yHwXWnRd/wAx3eoW7R3COrcLtx4qdgbpzk4XelyPhNz4znf/ANMz3rTSqZljBCSwjXpqXVzqeJ1N/wASMBaDHsSHGzjdzqw6Lp9Rx3xhuor/AAYRvyZ3Etzzc6udg32S39lNH7IUhhVSq5ysElEBZRFUSCIiAIiIAiIgCIiALBWUQEDR6eFNen3MVJcXue7Y2N36XbntU6UwhXrbZ4kl2KvwkPfHpCrfG5zHh0eHNOCP0wqRwV1NRLqdzJaiaRppJDh8hIztMV14TPibWfvR+2FROCf41O+6Se0xUS+NHctYxfh9Rte52ULKIrjiBVbX3m2n+29xVpVb1pS1FVQQNpoXyuEuSGDONxWe7TdGSRotGlXi37kBofz3/ou9YXQgqNpC31lLd+MqKWWNnEuGXN7QryqfD4uNHD9y/wARkpV8xfoZREW4wFB4ZJpYNM0r4JZInGuaCY3lp/ZydCh+BWpqJ6u7CeomlDWRY4yQuxvd0qU4a/itS/fmf7cihuA/4Zd/s4vW5aor9O2Z2/zUdbVF1bo6uvt4NZT1FPHHxTWbMhOd2egdqvSwQCs0ZOLyi9rJq2uB9Jb6amkLS6KJrCWnnAwttEXh6EREAREQBERAEREAREQBYKyiArOo9aUGnq1lLVwzve9m3mMA4G/t7FE+VGz9VrPRb3qS1Pouk1FXsq6irnic2Piw2MDGMk847VD+Su2/SFZ+DO5VvfPQ6VHyHGuTOfUjNX67tt7sFRb6aCpZLIWkOkaANzgensVb0VeqewXk1tTHI9hgdHiMZOSWn3Kwar0HR2OxT18NZUSSRlgDJMYOXAcwVd0bY4tQ3k0NRLJEwQOk248E7i0c/wBare2yz3OxQ8p5SemdPU6B5UrP1Ws9FveseVKz9VrOX5I714+Su2/SFZ+DO5Z8ldu+kKz8G9yn+Ycx/hmOjZfmO2mh3SF9Fuecr5jZsMDRnAHOta6XCG10MlZVEiKMDa2Rk8uPerTkG3sjGEKh7FqSgvzpW0BkzEAXbbMcucepTKNYBT9Q8IVssN0lt9VT1T5YwCXRtBbvGRzqO8rdj6pXegz+5bmo+Dqg1BeJLlU1tVFJIGgtj2cbhgcoUZ5IbV9J1/4M/tWiPBhbdyl8uehXuELW9u1NZ4KKigqo3sqWykytAGA1w5iedwUfwdaqotLz10ldFPIKhrA3igDyZzykdK3Ne6FotL2eGtpaupne+pbEWzbOAC1zuYdLQtDg90pS6pmrWVdRPCKdrCOJxv2ic8o7FpjxcLx2KHvyf6Xvyt2Pqld6DP7l7UPCjZ66up6OGmrGyTytiaXsaBtOOB/m7VpeSG1fSdd/R3LYt3BZbKCvpq6O4Vr308rZWtOzglpBHN2LO/L46ZLlyl/CyiLMXhERAEREAREQBERAEREAREQGMBCsrBQFV4Sx/wAm1n70fthUTgn+NTvukntMV84Smudo+saxpc4ujwAMk/phUXgqikj1S4vje1vgrxlzSBvc3uVMvjR3LSS/Dqq+p2NECFXHDAVf15u0nXkdDfbaoK78IMtuulVRMtjJOIkLA4zEZxz42ThQ1813LeLVPQOtzIRKAOMEpdjBB+SM8ithSnlPBFyRvcE/wm5drI/W5dJXFdLakfpyWoeylbUce0DBeW4xnsOeVWHymz/REf8A7B/tVlSlKUm0jxSSR0hZWnaqw19tpqssDDPE2TZBzjIzjK3FmJnPeGsY0tS46+z/AG5FDcB/wu7j/wAcXrcpvhnY+XTFK2NjnkVzdzWkn9m/oUNwJRyR1V2Mkb2ZZH+s0jnctUf47M7/AHkdZWMBZRZTQEREAREQBERAEREAREQBERAEREAREQHwWg8oz9aBgBzjf0rCIEeiwRlZRARc+nbNUTOmnttNJK9205z4wSSoHWVhtFFpytqaS3U0MzA3ZkZGAR+kERSi3sjxroV3g0tlDcZ65tdSRThjGFokbnGcq+eK1i+iaT8sIilWbU2eRXQlIYI4ImRQsDI2N2WtbyAdC9ERVkj4LQeUZx0oGAZwME84REB9oiIAiIgCIiAIiIAiIgP/2Q==;" vertex="1" parent="1">
          <mxGeometry x="1001" y="346" width="60" height="36" as="geometry" />
        </mxCell>
        <mxCell id="6MNtlvAQbQas4SW-6qWs-61" value="&lt;font style=&quot;font-size: 18px;&quot;&gt;Ad-Hoc&amp;nbsp;&lt;/font&gt;&lt;div&gt;&lt;font style=&quot;font-size: 18px;&quot;&gt;SQL Queries&lt;/font&gt;&lt;/div&gt;" style="text;html=1;align=center;verticalAlign=middle;whiteSpace=wrap;rounded=0;" vertex="1" parent="1">
          <mxGeometry x="945" y="585" width="120" height="30" as="geometry" />
        </mxCell>
        <mxCell id="6MNtlvAQbQas4SW-6qWs-62" value="&lt;span style=&quot;font-size: 18px;&quot;&gt;Machine Learning&lt;/span&gt;" style="text;html=1;align=center;verticalAlign=middle;whiteSpace=wrap;rounded=0;" vertex="1" parent="1">
          <mxGeometry x="914.6" y="770" width="160" height="30" as="geometry" />
        </mxCell>
        <mxCell id="6MNtlvAQbQas4SW-6qWs-64" value="" style="shape=image;verticalLabelPosition=bottom;labelBackgroundColor=default;verticalAlign=top;aspect=fixed;imageAspect=0;image=data:image/png,iVBORw0KGgoAAAANSUhEUgAAAOEAAADhCAMAAAAJbSJIAAABOFBMVEX///8AAAAbGRj8/Pz4+PgZFxYWFBP29vanpqYJBAC0s7N6eXnz8/Pk5OTq6uoSEA7BwcFQT08uLCvf3+CwsbLV1dY+PTza2tu4uboOCwloZ2fW1tfMy8v89POKi42srK6TlJaDhIaZmJhvbm4lIyLbQy/XTkCfoKJcW1rHxsZ9fHwwLy746unwzszMNSTRRTf34N7ttrHAPTVEQkLHOy/gnZnbgHrFNCfPTEDJKRTtw8DqtbHSUEPVWk/cfHT45OPfcmfeSzfcZ1znhXrpnZW9Kh7jWUfbtLKdYmCPhIXIWFKyPDWpXluccXCpmpral5PDaGPDpaS+Hw25fHq4lJLZi4fCd3PBjInNY1vVfHe/GgDjjobhbWHfXU/VOCTvq6TepaLXMBTLUkjexMPWqaa7Uk24KyOvBwAZ2J1iAAAXJUlEQVR4nO1da0PiyJpOkXA1CdEQEyQQ7hCFgIqieANbnF330nPc6TM6tOh49sz+/3+wb1XuAdvunnYkHJ4PkgsJ9dR7r0pFilphhRVWWGGFFVZYYYUVVlhhhRVWWOFfHDTz3i14WzA8x793G94SrCiLHEe/dzPeDLws5TBD9r0b8kbgVFWSZJ5hllRNOV3XVTFONpdQTWlRUATVJsYun5pySkoRXMHRy6amvKJlUrJXMXlumUIiIyS0jOBntFRCzDUSmgYUJY71SJFfGl/DauUGUBQlIQOWqOY4no0zmBy/JL5GKpbLOqslFFBWThIEQSchEQd9fhmESGuFYlkEeSU0gRxgeFECQFojcssgRL5YKBYlvJVLaLp9lGZYngcR8uEXolwCgpq5rXoommCXQIj0T//27wXBoqGCN/XIjOHEZRAi1b35j//8r//OkW05k1HsGMhwOZmn6PALEcT48bb3x97Pv/4tpRDI+CArSxJJaZglECJFtce9g483t+O9n//nFwiIOo8rKCcBXwIhUlTrea8FRD/1er1+7+bvv/5NyLkn2fj7NezHIX83bsPHU3/v7rl3e3tsHN19Oum28vgczS6DnlLU+e0AiB71u/l8q33ydPh8fHzce767P/hHdyksEXD/G1A8GB/Y+/n2wVmng9W2c3b4NLh4z7b9INz/1qZa/WevwA77nc5Rp2MYIFDj8tNT29Tb0OK836XujK6zP3g+nrSP262Li+7g6dP5GfA0zs4P2uEVJ310lD85frL28ofHRyDU44FzOt89OewcG/3O2flJd/4tFh2t3k3LuDO32x1jAgrb6jwFvnNy2ul0+v3+8CSMshwYn577xNSujA4RXv504vsGfXIGmlo/Nfq9vnH2qR06u/zUP+rjqHFunJkSos8uvecHZ8f1XXp3mO/uHgLLvnF6OAhXLKEhPhxQeZCTLZxhxz3bvZwaj0Do/NDcfboEkv2jT6EyyoHROcufdk4d7Tuv2Zv5ybQ2ITvTK/tsfnB4ZIC6DkKkrXedzmWn4zqRydSS0OB0emludn8feC4gJI2jg9Zf2Mg/hbZR73QOXZFcTXHCStGT2vTROvQ4Dahl/uTOMPYOwiLHYacOHIcnVnt3CbHuQ+3BoXV5OutcWh8hvzsIh9M56dcBndp0uIsVbzCFcLFbq02c1l/UPgSvybc/nuEU9mgQPLOIyNc7D7URFuRoNNy9aNeG1KQ22nW/sDv188i3JxA4jP7hHXC8C0MacF57BO9Rq40IyYf6w3A0anvOf556Da49AT9j9CeDfP7o/N7o9Z7+4uZ+B07MYNB9vKyP6gQjr9Da06Gz3XqqA7uzA9IBw16eat/1xzcL71W700Nrq9X+XK9f16+vR5ePTrM/OEraPq8ZxuWB5YFOfjshH1BQLrw1Ts/trfb16OF6NLoGjqOJaWEXtWvic+jdy+m0ftW1HdCFMTQ3Wndjt4xeUDwMrY3BqHb1YfThwwiTBI6YzYcajh75x/q09sFrnXeGI+Wn8fh+sePGuZVsP9ZqV63RCPzKYGhybFPt2nWeal1Np5e7vgB/5dSVgPbe+Gahw//kjEjgCggCSzMH7X6oYV19/Dx6zF/Vpj7xUTgTGnp3Wzfj50X2N1eE4QQTpB5qdksH15ji9fXk+vdJMOjlOx0/ofzdQlN8fKApejjCBteeugVw65pgNJlVwKFxEjz083hvcSlenVH5S0IQ/IqTjbaJBDFmgsGBcR48RFH34+eFtcXJ54sHk2B+6qSgV7XR6MokWfMPbFDtfmcOF/rn8d2ietThw0OnRhLR3anlUS4+j2rDPISN3QfsVIfepuc70/acu1D55/H9m7f1+wB5mknQiYyPtRHo5uMIp2+7IMfRg0dol8bj7D0w8nvjj2/b0u9EvmYTbP9OhNP6UBtdQc4JakrOf6jVR58dKV4Zh3Pv0rpo3+/dzpXue6Nbq1u+ZPKA/w6ua3j4ogXKaX1jFyjavmXgDlpZaLVPPt7f7I1/++12vJhCfBzVJ6Tr87UBHr6YjogWfh49OHJrQ11lZgIXHcMTFLqDj3e9/u3tuH9z/zRotxbU0ww7UOGfAcfdBzx8Mf1AKFzVrj1xvgW+CAuaPjNMPaRbg4M74/j4du/u00l7cSMhRgv4dYiveTihHqdW9BvUfFUwpogT1kNcStHdk0M8bdMns6rv0uhvwuC43b6sAcWrh4vh71YCc3FdCzjM1unoEKLJbuvk/BSzO38KzQj/cErh8ACVPVieldHQl8EoT6T42KkDO+P0MFSTNBdmBjYBRR05YpvUhsHv5dvDjtExzg5DN9H2iQxSnJzWR2c1OwHdnT74NTA/OKxPjc75bjcsmukib9TzVP4cgv4V3Rmax7qjmldO+cGwM52eHbQXNBa8givjiTrpd+rY7nZ/J44x/+AZIG3tDqfH9fOTELjM+Wj1z7qHRr3ex46lNSXJ27kzYXGB6Z1NQuM052HSuzwDH9Mj3oY+wx+P1uBi9/Gz8fvDQTecumkDKr1O5+ioZyWd5x08AnNJY3oP0+nDY9jc5gzoG+PkrnPUs8u/yTGVPz296B6cHhuX4acHeDKG1EGvd2fb2dNx67xzeTk9vgy7clq4MDotqms8O+tKBsZ5B8L6xzbLMMwSUKSfjQF+EMqWIN0+7Bn18wELiC8BP8hmbg+o/MQe+OxegfHd/a/I8jwTZ60VJuHG4Paeaj/3zSCPJ+Z7n/6BlyPw+MFvGqtpyDl2x3fUx3EfFwld0E4Qn8xxfJzmrUfZ6bAzzPfuQIA9iAjtu1vj6P4feMEMUHIYwmaoKdJ3z/gh7y51cmMYN7+qsmwtIAWG7pK9MDO8/+O5t9dvD27G45//JuVk58Fnml+ONYif/tgD3D+Pe38X8KouV1hLssry4xgT3Bs//yqoeKWFKjqnmKVY7vxECP4B/PQcp6o8JUkOLXYZ1gI/YRX94+YXRRAZKqfnKIp39ZTnPN8MqTPFKvrHP38RVGxwcV3FMhMle1G362josOamoKLAT7H0MicQRnTOpuiYIRPWxO1pjPmJlrGxgmRu2BRp8wUSVDy0yffT/z3/khGcXclZYMnIOZnBr3HBBxhIbMLJDwg+0Zom2bu84gY/WsQLLLGjCTE/6umfFxST0Jzo512Th19Tg3Nv/LKhsPKjfvoJ/gBDOyDIgv98XIT0WwwvPypvFvMOQ1YJpC8MJ4viEqQ0Cc3STUH0HY+LksiDDAMUQyhRxXqVguRbi8/KEgQKcKW8yHvzttCkNZ5Gq5pGXvKR8iz35SWVhEgOu1Lf2zHCwtBbEfEJHC6YjKOjjKhab1KiZaKiLO+WweFgSHO+3YymsZRg+VGalyBDtZNS2TqIObIkaQsHQ93fSknTFFXDOorpmRm4CdlNu4Ejy4ZlYDgTWF9PZzIZUFRe1hVFkD0nWU+tT9FxPDAcCoaKGjwiaZlMCmgqkn/EIufXZqif4vEQ1MNywbfLinpKA4YZIRdMXngpSAcoLj5DuqC425yuNRqNRAYznJEsLQVFSNT0zVv4Z6Fsm1EB2CWKxUZCgICgaFhHA3ygzvfJNI5dDb34RSJTKjFQDulasVDWdDMj4xMJXtRSKX96xnt8qhUugN3il1FqqaAnCqViRnVzMQG/5EvNpBRfdqZK7jZPZjDw1uLn4Y1SoajkfO3kGw28jyl6BJRTnQEaXnRSU2bxX+RSKDWCh1IN08moGcUtnzjdMsu4KHsqRHbhHU28VCoGLElsaFazJaBo8eJ1U0dxheEV+OKbITAsBN7+mGg4KTeXUhQVc4jrOlZHPidxPrUMw7t4CqWSP28RGm58pFgB8jaRYnSBh3CiSsEcIL74joZKlEq+0C6XGz4WkiIouiqIcVnNzdIJwxujpO1SwrPLl8uBQM8L5pshxTlk6FAMSpVKJVc2dKMceI0gr4KeCro5exEEG4qpxNx2SbO36UQx4z3HyEpGkBlJ0IGjPMsxJK/fy5RK9rhvpthwaTCioJnlkyDwrApilAOek+YXPhoS0OVSwbS9TLHovCMR6GWswQueFJCsjGeDZd6TaodDSQF0sVTC8RwImsMwrJRpaG6erSv2UxgyfhVtTuasaYuQKCmF/UuplOC0An4va1wUGo2M5Gk7r7gpN4hNlHM52XwbbZjmu5VSoQAZOCckoIQKNFxQAkkPw0JpIXJcuB7KEIFgsajNJC0QMFPBShgDyouw/asEWsEUpZnj3OxoBhXn8BNSXJiUlIDX8AuEA5rH+mpEDIaH8gLCBCOGSklNiBqIUfDqHqNkfKrI8DnVKi/4cE6zcRAxyh6OiuYxQlaEiOjw4vxTb+EBqzeKxYxozsMomjNPwamCoHrEFpdDqKQ2RKVRbkC9FFfIIwtxCPTk/3j4B3PmpKkhAmTc+B8HaAqeukhlMoIUzEBpeV4MCRXw8DdGJjUnRuIsNZR+JghW1JVMRtFz3MzItgyWSh76CkMJ/EWAi5GApiLoEATd57z4HA/ZbEEpU6V3bd6PAtAkzob8mwsZcm5ezuEBfUGucGs//ucSCSuN4hNanJIT32YPTLlS+l7VYnBhIZnAfgaKDmVN+/FqitCmuVFGiKcS6NsC7xZa36IqZKjiu/9nDE2bE780y8bfor6IbiDTUe/HIjzFCd8WllAFshGUgq1MQtAWMy1Jb22QmQYRraWdDnQeTTY9u9OzznHGGgxEBTiIFPy8UyWhJBbSEyYLaxv4s9AsJ3lKwwJVNxBCQLtZWcOa24C9LH5WRIENVIYNdgs21nlKQFGEKvgPlaC2EgI/WxktAJIlldheNVUGNhlgKKOmzBVBMFuRzUQB7LPIiRWkgzYWOK4MKklvxnRO3ajGWRmtyZyAyiIwrJQ5SX5vNvOQ3KawXHKILVoMK1XsT9fXqAocoBhEHPjmJqUjTKCsUimEZSXiy0wtBTvkEgqtld+VyUsAhhXwpqUmZTNMVqxTFQR/dEIHVJXjUbZEHmJeqxJ3FGl6GALFRmb+L7w3gKEOagqttBmibevUVpXCxkdUD3/IzSSYHU8194lH2V/3MlxcAEMKNUBJXYZEhjxvMhQQGWwxAyWvr6EmVdkhMtxohofhWnMbWmszXCcpANAjDHlUxLvNKqWs441t8JskgrKoFA6GWCdVhASXoYoKNGhlwmRIrcE5ugzRAx+n+eoWxaY3eYpdxzxNhqWFrs+xq2Qi2KcUkBUPEwilsYCaWfwFuoKyCDPBeV0Eh0EqtwkbVeyB8NfoJo6aiwuSr5DFRywklixJLlmdPFFgL0niFHMpD5ihYq7loSXFfCaNDEXQOXkhk5kVVlhh0ZDTimuVtVIjNVvj0RI5V9BywTNxnv+qWU0xg2+wXc68W2bOF6tQDiWzSVweVf0TRtJa0jlXLfhHNXFdVaFeQby84948qrz29TeBFkOxiAPkTaC5LZSMOqdiZnnoIIEiydeGjoQN380Lr3z9TVCAJkSRjZg3B1NQMhKJZq1TadhG6x61/AqGDXzzrHvz4lsweAUNFImks9v4cU+a1ws7HoYaAvmhdAWvwWZzmXXMMbnjUnydoYBvjio6voZXy5vvIUMWWGT3Xf9Ca46p4OZFcLlkQ92HI8l9Z/91hpFYJLbhMWwl8fJ33woZFIlG5k6L8DEwIORrEr2FvLb0KkPcR2jGBf/FWMtGsvP9IWET7PP1LNii3eZXGZZQJL3/pS/8FViPRdDc8ZUcJjjTfjYNSr1l7bzKcCv7urN9czTTETR3OqSSBSOajefYMVljyK8zhHtkmy+fZtVEuZzypgFkUQn+lARdJKv0A4+c4rdmOYUMryaKZWXe9Yx5PSmPtoHI5pxfZ8ADoeLscT4GxxtfybCAu+OlyordrpoxZNN5mJESstUq2IyCk4QNmkrEqtV97/VCGg7YLVmLWNe73l9JVyNQ0qfwnYGVUNZUCHmRuUx0fHxeYQual17/SoYq9r0vZD0KhMdoOpuOQThZt+cSBBRLbsF9wcfFdmiKT8ZiyJtjNZMx2zVokCHZ1zcZ56YxsKwyvh4cQFwtJ3So77HHXJt5Yhe6P7Yxr2VAK4q+kiG1AxEUbc3rqAToSBKtbzU3sLLYggLnm61w0EwAMMTd6bUhFne7aTll+/oqvn7dYRhJbufM6/cpWiimdJAoiXobwdGkJjiJbWoOVFe4rzNUcc6QjMxGQRJHtrCpsCnocTsCEYZrCJUENVFhyH405l6VQbbjx61GFTIihvvKdpbAMLvdRKigw/Xw8wJ5TLCIWxFD+/7XAeynZ0MFgQiJnDlK/DVZm0YUDu0EOpCNuKwoCdTN6jPMaKfqTvHR+HvubMh62trj054QoGKtYm2GsX1UdeK7tV5TSUKjQZv3PRMrzA7cYm4hwEehy4SvZUipVURy9g1fB4INJLecvSKyXQEWrc/ySt6fEFHU8opryBvJtpO2NLBXSSdnizR+C2ec2GKdzmM3YjaPANjINzGk2DWUJRzX3Q5kq7EochMpEdnOSwi6JhmEErG9aRlZbpzFyst7v2QFJeI35wY/yDgxx6wj+R/HELSwad3csWtw1FlXhHgyK4oYmyHyzdFtQjvs5/3309Es4ZXy/zATi8Z24g7DF9JEYRNbTBQ1zQ6LYy2dO5ZNtPSr7dCESsoScJlWBgFK6itDsX3xFsNY1Zdm4N+whCo7fmYt6e9+6KE0ZzGMRl5shrJJiiXL8X7Z03DfxhCktk686qbZeggCsf11F1XoNMliaAdbCzzYnsUZ94vZtZvpwPXQJNFiGLjeB5pESsvFNV9KKUm0oL6VIXjVLI6NpgxAZpFY2kXU1k3Br75Wb1jyqsZiO5S15b8+4mEYvN4P8NsRy3HjiD9X3mW3XvgmhpS4gSkSP7ePtwJ4iaFg/wh0re0motHZ661JwNcjdMRyVyRrm/dwBbaZwvcwBP2OWo4O36OY8iFj22GQIcQt0w1h47NMtIqjYeB69usY4t82f4J2mhNopsfbfSNDUq6QeNbMvuCo5zDEIRFHZgYcqX1qMxbwuDa+gmHRCS3b4JbSsxklxNr0phWgvpVhytb8bfRCUTqPoWweg1NO2MC2OXdO/ZsY8jj4zlgtUWO72vkehlXrwvl14zyGFA5cNLDC1YaJxksOZR7DQPXmcaEF35iMCR68rSPC1xkGbg6WZPpy7iUjn8swgdWUhdzVETuINZqdN7g0j+GWb4ibDF1Y6SizmQ1SlKrYCTpXvF7j+1Yfeopn6MisL25Z5jCXIYsjPVQpHk4QEP36ZV0/j+Emqrg2q4KTikXsclIk4dFNJ/kCzkyQuxwdM5xbYdlooqbLUYZm2TUE8dRu/smUKl9giBV0v5D06jXJztyfZtcKLzPcj2VRZE3TJVVo7JPRb7eikDGjNNqAOlJXGutQVEMC7fEQuBiubrrYCRYjzWwWJSuaADdPrPu6p4KbuKGRKWS1lLQLhfkMoT+qOzGf9yUDgTvkRRSMuobQFxlCepB0hu3TPh8nbpq1ozuoH/GSAIaQ47uYSWRBGZ0xfZzGeHR+ndRJKLaBh1Si6IsyxKVc1J9/MPvW9TsQ+pPRLzFcI79tAhqz6V+3yxSQO7GSRmjbFz4SKObDDEO4Ou1M7GRR1dM99DYpqqJgm3BmQ7cZxtAcJ1mAH0JF3yH8AIV7/Y5kM4zNjoCK5XUn89maDcM8mRzDokw3A28nobTIhg+zc2dcw715MxV4fdTW7BkdZDpn5EqubmzMxGa16VzvvFFTiW5U53oGnqzxeOmREUYSMjFwQTvft2LAvPnciQMZzuh/4rlbCd/5Bz23q+MJnJ3QL/v4ElKYYvW9Z1neFBkSK2bezbJMSJFoGSkIoqiWF/Jp4D8NPZt1guNCPtH95wEJgBU7l5UhGa2CFGJ5ZYghKoXtUlkIwYtkVlhhhRVWWGGFFVZYYYUVVlhhhRVWWCj8P0a5fFZTbfQWAAAAAElFTkSuQmCC;" vertex="1" parent="1">
          <mxGeometry x="200" y="20" width="110" height="110" as="geometry" />
        </mxCell>
      </root>
    </mxGraphModel>
  </diagram>
</mxfile>
